<svg version="1" xmlns="http://www.w3.org/2000/svg" width="346.667" height="346.667" viewBox="0 0 260.000000 260.000000"><path d="M0 130v130h260V0H0v130zm247 0v117H13V13h234v117z"/><path d="M56.5 121.2c-10.2 18.7-13 22.7-17.1 24.4-1.9.8-3.4 1.6-3.4 1.9 0 .3 4.6.5 10.3.4 6.7-.1 9.1-.4 7.1-.8-6.2-1.5-6.7-3.1-3.2-9.9l2.3-4.3 8.5.3 8.5.3 3 5.7c1.6 3.1 2.6 6 2.2 6.4-.4.4-2.6 1.1-5 1.5-2.5.4 2 .7 11.3.7 12.1 0 14.8-.2 12.5-1-1.6-.6-3.5-1.5-4.2-2-.7-.6-5.9-9.3-11.5-19.4-6.5-11.6-10.9-18.4-11.9-18.4s-4.4 5.1-9.4 14.2zm8.3 3.3L68 131h-7c-3.9 0-7-.3-7-.6 0-1 6.5-12.4 7-12.4.3 0 2 2.9 3.8 6.5zm35.7-16.5c.3.5 1.6 1 2.9 1 3.3 0 4.3 1.5 15.9 22 5.8 10.2 10.8 18.5 11.2 18.5.4 0 4.9-7.7 10.2-17 9.7-17.6 13.1-22.2 17-23.1 5.2-1.3 1.7-2.4-7.9-2.4-6.3 0-9.8.4-9.2.9.5.5 2.3 1.1 3.9 1.3 4.9.5 4.3 3.8-2.9 17.2l-6.3 11.8-7.2-13.6c-4-7.5-6.9-14.1-6.6-14.6.3-.6 2.4-1 4.6-1 2.1 0 3.9-.5 3.9-1 0-.6-5.7-1-15.1-1-9.7 0-14.8.4-14.4 1zm85.9.4c-4.7 2.1-7.4 6.2-7.4 11.1 0 8.2 5.1 11.4 22.1 13.9 12.6 1.8 14.1 2.7 13.7 7.4-.4 5.2-4.9 7.5-13.3 6.9-7.5-.5-13.2-3.3-17.9-8.8l-3.6-4.3v15.8l2-2.2c2.5-2.7 2.3-2.7 11.2-.2 9 2.5 14.1 2.5 19.5 0 10.3-4.6 11-17 1.3-22-2.1-1.1-8.5-2.7-14.2-3.5-11.4-1.7-14.8-3.3-14.8-7 0-4.1 4.3-6.5 11.8-6.5 7.7 0 14.1 2.6 17.4 7.1 1.2 1.6 2.5 2.9 3 2.9.4 0 .8-2.7.8-6 0-6.3-.4-6.8-3.3-4.6-1.5 1.2-2.6 1.2-7 0-6.6-1.7-17.3-1.7-21.3 0z"/></svg>